<?xml version="1.0" standalone="no"?>
<!DOCTYPE svg PUBLIC "-//W3C//DTD SVG 20010904//EN"
 "http://www.w3.org/TR/2001/REC-SVG-20010904/DTD/svg10.dtd">
<svg version="1.0" xmlns="http://www.w3.org/2000/svg"
 width="900.000000pt" height="900.000000pt" viewBox="0 0 900.000000 900.000000"
 preserveAspectRatio="xMidYMid meet">
<metadata>
Created by potrace 1.11, written by Peter Selinger 2001-2013
</metadata>
<g transform="translate(0.000000,900.000000) scale(0.100000,-0.100000)"
fill="#000000" stroke="none">
<path d="M5112 8190 c-296 -42 -593 -199 -864 -459 l-97 -93 -43 30 c-24 17
-83 64 -132 106 -147 124 -285 182 -502 211 -199 26 -314 16 -489 -41 -318
-105 -745 -396 -1180 -804 -651 -612 -1014 -1304 -1095 -2090 -18 -166 -25
-846 -11 -986 23 -230 75 -439 152 -617 76 -176 286 -503 478 -745 209 -264
375 -429 606 -602 307 -230 734 -442 965 -479 36 -6 194 -11 352 -11 l286 0
198 -208 c109 -114 221 -225 249 -247 69 -54 173 -100 270 -120 112 -23 396
-37 492 -25 161 21 232 52 408 180 168 123 152 118 229 69 103 -64 157 -81
276 -86 367 -17 735 174 1237 639 420 390 695 746 960 1243 265 497 325 709
378 1342 29 352 30 402 10 594 -42 403 -62 484 -179 712 -78 152 -141 259
-261 442 -169 257 -519 727 -726 975 -512 614 -1027 964 -1554 1055 -110 19
-328 27 -413 15z m462 -546 c186 -29 594 -139 725 -195 176 -74 317 -176 481
-345 206 -212 353 -440 583 -899 233 -467 292 -683 342 -1255 14 -156 15 -219
6 -405 -44 -875 -231 -1468 -679 -2155 -232 -356 -399 -523 -635 -635 -374
-178 -610 -179 -729 -3 -71 105 -73 112 -73 243 1 107 4 128 28 190 62 157
171 297 296 378 36 24 143 76 238 116 222 93 261 122 291 208 19 56 25 193 12
258 -23 115 -117 172 -300 182 -234 13 -423 -84 -514 -264 -50 -99 -62 -153
-96 -433 -42 -340 -81 -460 -215 -661 -158 -238 -348 -380 -586 -440 -109 -28
-309 -23 -409 9 -180 58 -336 213 -443 439 -29 61 -32 76 -30 153 2 141 29
215 192 550 160 326 196 417 241 593 73 289 81 488 51 1272 -27 703 -30 1834
-6 2019 17 129 61 308 99 404 86 217 240 421 400 532 120 82 295 144 451 159
92 9 141 6 279 -15z m-2460 -159 c92 -16 243 -61 340 -102 185 -77 328 -224
410 -420 94 -225 152 -644 197 -1413 18 -317 -2 -1546 -32 -1940 -33 -443 -94
-774 -174 -948 -57 -122 -230 -360 -325 -446 -84 -76 -196 -106 -398 -106
-316 0 -569 56 -827 185 -164 82 -291 173 -420 300 -300 296 -523 736 -630
1245 -57 270 -86 718 -66 1026 38 602 186 1177 397 1550 182 319 612 764 908
936 219 129 410 169 620 133z"/>
<path d="M5753 6745 c-122 -33 -194 -91 -246 -198 -51 -106 -62 -165 -49 -274
13 -106 37 -185 97 -309 76 -158 169 -234 350 -286 69 -19 104 -23 245 -23
l165 0 67 33 c72 35 99 64 146 157 53 106 72 179 72 280 0 187 -68 332 -202
430 -78 58 -237 138 -346 175 -102 34 -207 39 -299 15z"/>
<path d="M5985 5114 c-11 -2 -45 -9 -75 -15 -157 -32 -262 -116 -339 -273 -64
-130 -81 -198 -81 -327 0 -127 25 -239 79 -354 94 -201 225 -264 525 -252 203
8 320 44 411 128 79 73 170 263 201 423 16 80 16 92 1 168 -22 112 -100 271
-167 342 -57 61 -153 116 -245 141 -58 15 -269 29 -310 19z"/>
<path d="M2621 6534 c-252 -68 -432 -334 -512 -759 l-23 -120 -102 -105 c-107
-110 -143 -168 -182 -290 -30 -93 -42 -171 -42 -269 0 -113 21 -156 139 -285
l91 -100 0 -66 c0 -36 -7 -117 -16 -180 -21 -146 -14 -232 26 -341 74 -199
164 -316 298 -383 100 -50 184 -68 327 -70 137 -1 197 15 239 65 35 41 70 160
95 314 61 387 63 408 58 519 -3 61 -2 117 4 127 5 10 44 42 87 72 166 118 232
227 278 461 15 73 15 98 6 168 -21 145 -70 223 -183 289 -38 22 -88 58 -110
79 l-42 39 8 238 c8 269 5 292 -56 419 -79 166 -209 226 -388 178z m243 -940
c241 -54 375 -220 376 -465 0 -253 -125 -405 -385 -465 -105 -25 -395 -25
-532 -1 -140 25 -198 51 -269 119 -72 69 -105 125 -133 228 -47 168 -7 306
127 437 109 107 380 178 636 167 60 -2 141 -12 180 -20z"/>
</g>
</svg>
